<svg width="132" height="32" viewBox="0 0 132 32" fill="none" xmlns="http://www.w3.org/2000/svg">
                                        <g clip-path="url(#clip0_2802_8002)">
                                            <path d="M130.41 1.41177C129.949 0.784316 129.488 0.313726 127.183 0.156863C126.568 0.156863 124.724 0 121.497 0C113.045 0 107.205 2.66664 104.286 7.84316C105.054 2.66687 100.137 0 89.3795 0C76.7784 0 68.7876 5.1763 65.5605 15.6863C64.3311 19.6079 64.3312 22.7452 65.2532 25.2549H62.1798C59.8747 25.4118 56.8012 25.5686 54.8037 25.5686C50.1935 25.5686 47.2736 24.7843 46.1981 23.2157C45.276 21.804 45.276 19.1373 46.5054 15.2158C48.5032 8.78443 53.2671 5.96077 60.9504 5.96077C64.9458 5.96077 68.7876 6.43136 68.7876 6.43136C69.2486 6.43136 69.556 5.8039 69.556 5.33331L69.4023 4.86273L69.095 2.66667C68.9413 1.2549 67.8656 0.470619 66.0215 0.156892C64.3311 2.88085e-05 62.9481 2.87999e-05 61.1042 2.87999e-05H60.9505C50.9618 2.87999e-05 43.8929 3.45089 40.0511 10.0393C41.4341 3.29441 36.824 2.87999e-05 26.2205 2.87999e-05C20.2272 2.87999e-05 15.9246 0.156892 13.4659 0.470619C11.4682 0.784342 10.2388 1.56866 9.77768 2.9804L8.85564 5.8039C8.70197 6.27449 9.00931 6.58822 9.624 6.58822C10.085 6.58822 11.9291 6.2745 15.0025 6.11763C19.1516 5.80391 22.0714 5.64704 24.0693 5.64704C29.9087 5.64704 32.5213 7.21567 31.5993 10.1961C31.4456 10.8236 30.9846 11.2942 30.2163 11.451C24.6841 12.3922 20.2275 13.0197 17.0005 13.4902C7.78012 14.7451 2.40158 17.5686 1.01877 22.2745C-0.978939 28.7058 3.93852 31.8431 15.7713 31.8431C21.6107 31.8431 26.682 31.5294 30.6774 30.7451C32.9825 30.2745 34.212 29.8039 34.6728 28.2353L36.8243 21.0196C36.6706 28.2353 41.4344 31.8433 51.5768 31.8433C55.8794 31.8433 60.0288 31.6864 62.0263 31.3727C64.0239 31.059 65.0997 30.5884 65.5609 29.0198L66.0219 26.8237C68.1733 30.2746 72.9372 32 80.1597 32C87.8433 32 92.2996 31.8431 93.5291 31.3725C94.6048 31.0588 95.2195 30.4314 95.5268 29.6471C95.5268 29.4902 95.5268 29.3333 95.6805 29.1765L96.6025 26.1961C96.7562 25.7255 96.4489 25.4118 95.8342 25.4118L90.9168 25.7255C87.6897 25.8824 85.0774 26.0392 83.2331 26.0392C79.6985 26.0392 77.3938 25.7255 76.0107 25.2549C74.0129 24.4706 73.0909 23.0589 73.2446 20.7058L88.7654 18.6666C95.6807 17.7254 100.444 15.5294 102.75 12.0785L97.3711 30.4314C97.2174 30.7451 97.371 31.0588 97.5247 31.2157C97.6784 31.3725 97.9857 31.5294 98.6004 31.5294H105.055C106.13 31.5294 106.591 30.902 106.745 30.4314L112.431 10.1963C113.199 7.52961 115.504 6.27468 119.807 6.27468C123.649 6.27468 126.415 6.27468 128.259 6.43154H128.412C128.72 6.43154 129.335 6.27468 129.796 5.49036L130.718 2.66685C130.718 2.19626 130.718 1.72567 130.41 1.41195L130.41 1.41177ZM26.8358 25.5685C24.8381 25.8822 21.9184 26.039 18.2302 26.039C11.6224 26.039 8.8562 24.6273 9.62456 21.9607C10.2393 20.0783 11.9296 18.8234 14.6956 18.5098L29.6017 16.4706L26.8358 25.5685ZM95.5276 9.25493C94.9129 11.2941 91.993 12.7058 86.7684 13.4901L74.321 15.2156L74.6283 14.1176C75.704 10.6667 77.0871 8.47055 78.931 7.21552C80.7751 5.96061 83.8484 5.33316 88.1513 5.33316C93.8371 5.49002 96.2958 6.74493 95.5275 9.25474L95.5276 9.25493Z" fill="white" />
                                        </g>
                                        <defs>
                                            <clipPath id="clip0_2802_8002">
                                                <rect width="130.667" height="32" fill="white" transform="translate(0.584961)" />
                                            </clipPath>
                                        </defs>
                                    </svg>