<svg width="47" height="32" viewBox="0 0 47 32" fill="none" xmlns="http://www.w3.org/2000/svg">
<g clip-path="url(#clip0_2802_8029)">
<path d="M30.4095 20.7732L20.9648 4.15792L27.7499 0.212891L39.4942 20.7732H30.4095Z" fill="white"/>
<path d="M5.25293 18.4453L12.038 14.4736L15.628 20.7732H6.56956L5.25293 18.4453Z" fill="white"/>
<path d="M18.5684 31.3731H20.4994V23.4653H18.5684V31.3731Z" fill="white"/>
<path d="M42.7688 31.5596C40.6095 31.5596 39.3105 30.4312 39.2402 28.8408H41.2766C41.2766 29.3383 41.5838 30.0669 42.9005 30.0936C43.7782 30.0936 44.1908 29.5693 44.1908 29.1784C44.1381 28.5564 43.3657 28.5031 42.5406 28.3698C41.7155 28.2366 41.0133 28.0855 40.5042 27.819C39.8547 27.4813 39.4158 26.7527 39.4158 25.9175C39.4158 24.5048 40.6271 23.3853 42.6459 23.3853C44.6033 23.3853 45.8409 24.4248 45.9726 25.9708H44.0064C43.9889 25.5532 43.9099 24.8957 42.7512 24.8957C41.97 24.8957 41.4522 25.0557 41.4083 25.6066C41.4083 26.4151 43.0321 26.3618 44.2961 26.6994C45.5074 27.0104 46.2798 27.7745 46.2798 28.8408C46.2798 30.8044 44.7086 31.5596 42.7688 31.5596Z" fill="white"/>
<path d="M13.2061 11.3905L19.9911 7.42773L27.6012 20.7733H20.5002V22.728H18.5691V20.7644L13.2061 11.3905Z" fill="white"/>
<path d="M13.3814 31.5601C11.1343 31.5601 9.30859 29.703 9.30859 27.4551C9.30859 25.1805 11.1343 23.3857 13.3814 23.3857C14.2328 23.3857 15.0052 23.6167 15.6811 24.0876V20.7734H17.6121V31.3735H15.6811V30.8492C15.0052 31.2935 14.2328 31.5601 13.3814 31.5601ZM11.1607 27.4551C11.1607 28.6812 12.1964 29.703 13.434 29.703C14.6453 29.703 15.6811 28.6812 15.6811 27.4551C15.6811 26.2289 14.6453 25.1805 13.434 25.1805C12.1964 25.1805 11.1607 26.2289 11.1607 27.4551Z" fill="white"/>
<path d="M27.6537 20.7734H29.5585V31.3735H27.6537V30.8492C27.0042 31.2935 26.2054 31.5601 25.3277 31.5601C23.107 31.5601 21.2812 29.703 21.2812 27.4551C21.2812 25.1805 23.107 23.3857 25.3277 23.3857C26.2054 23.3857 26.9779 23.6167 27.6537 24.0876V20.7734ZM23.1596 27.4551C23.1596 28.6812 24.1954 29.703 25.3804 29.703C26.618 29.703 27.6537 28.6812 27.6537 27.4551C27.6537 26.2289 26.618 25.1805 25.3804 25.1805C24.1954 25.1805 23.1596 26.2289 23.1596 27.4551Z" fill="white"/>
<path d="M34.2545 31.5596C32.0425 31.5596 30.208 29.7026 30.208 27.4547C30.208 25.1801 32.0425 23.3853 34.2545 23.3853C35.1059 23.3853 35.9046 23.6163 36.5542 24.0872V23.4563H38.4852V31.373H36.5542V30.8488C35.9046 31.2931 35.1322 31.5596 34.2545 31.5596ZM32.0864 27.4547C32.0864 28.6808 33.1221 29.7026 34.3334 29.7026C35.5448 29.7026 36.5542 28.6808 36.5542 27.4547C36.5542 26.2285 35.5448 25.1801 34.3334 25.1801C33.1221 25.1801 32.0864 26.2285 32.0864 27.4547Z" fill="white"/>
<path d="M2.20752 27.4547C2.20752 28.6808 3.24327 29.7026 4.45457 29.7026C5.6922 29.7026 6.72795 28.6808 6.72795 27.4547C6.72795 26.2285 5.6922 25.1801 4.45457 25.1801C3.24327 25.1801 2.20752 26.2285 2.20752 27.4547ZM4.4019 31.5596C2.18118 31.5596 0.34668 29.7026 0.34668 27.4547C0.34668 25.1801 2.18118 23.3853 4.4019 23.3853C5.25332 23.3853 6.05208 23.6163 6.72795 24.0872V23.4563H8.63267V31.373H6.72795V30.8488C6.07841 31.2931 5.27965 31.5596 4.4019 31.5596Z" fill="white"/>
</g>
<defs>
<clipPath id="clip0_2802_8029">
<rect width="46.3673" height="32" fill="white" transform="translate(0.251953)"/>
</clipPath>
</defs>
</svg>
