 <svg width="108" height="32" viewBox="0 0 108 32" fill="none" xmlns="http://www.w3.org/2000/svg">
                                        <g clip-path="url(#clip0_2802_7974)">
                                            <path d="M67.0773 24.9993C60.8861 29.5351 51.9124 31.9551 44.1862 31.9551C33.3528 31.9551 23.6 27.9724 16.2216 21.3485C15.6419 20.8276 16.1613 20.1178 16.8569 20.5234C24.8197 25.1283 34.6653 27.8987 44.8355 27.8987C51.6945 27.8987 59.2398 26.4882 66.1776 23.5611C67.2257 23.1186 68.1022 24.2433 67.0773 24.9993Z" fill="white" />
                                            <path d="M69.6509 22.0721C68.8625 21.0672 64.4197 21.5973 62.4256 21.8324C61.818 21.9062 61.7253 21.3807 62.2725 21.0027C65.811 18.5274 71.6173 19.2418 72.2944 20.0716C72.9714 20.9059 72.1181 26.6909 68.793 29.452C68.2828 29.8761 67.7959 29.6502 68.0231 29.0879C68.7698 27.2348 70.444 23.0816 69.6509 22.0721Z" fill="white" />
                                            <path d="M62.565 3.52832V1.12213C62.565 0.757978 62.8433 0.513672 63.1772 0.513672H74.0152C74.3631 0.513672 74.6413 0.762588 74.6413 1.12213V3.1826C74.6367 3.52832 74.3445 3.98006 73.8251 4.69454L68.209 12.6645C70.2959 12.6138 72.4988 12.9226 74.3909 13.9828C74.8175 14.2225 74.9335 14.5728 74.9659 14.9185V17.4861C74.9659 17.8364 74.5764 18.2466 74.1683 18.0346C70.8339 16.2968 66.405 16.1078 62.7181 18.053C62.3424 18.2559 61.9482 17.8502 61.9482 17.4999V15.0614C61.9482 14.6696 61.9529 14.0012 62.3471 13.4066L68.8536 4.13217H63.1911C62.8433 4.13217 62.565 3.88787 62.565 3.52832Z" fill="white" />
                                            <path d="M23.0298 18.5414H19.7325C19.4172 18.5184 19.1667 18.2833 19.1436 17.9836V1.16338C19.1436 0.826882 19.4264 0.559526 19.7789 0.559526H22.8536C23.1736 0.573346 23.4287 0.817661 23.4519 1.12189V3.32065H23.5122C24.3145 1.19564 25.8217 0.20459 27.8529 0.20459C29.9167 0.20459 31.2059 1.19564 32.1334 3.32065C32.9311 1.19564 34.7444 0.20459 36.6875 0.20459C38.0695 0.20459 39.5814 0.771565 40.5043 2.0438C41.5477 3.45894 41.3344 5.5148 41.3344 7.31713L41.3298 17.9329C41.3298 18.2694 41.0469 18.5414 40.6944 18.5414H37.4017C37.0725 18.5184 36.8081 18.2556 36.8081 17.9329V9.01806C36.8081 8.30819 36.873 6.53812 36.7154 5.86512C36.4696 4.73578 35.7322 4.41772 34.7769 4.41772C33.9792 4.41772 33.1444 4.94782 32.8059 5.79598C32.4673 6.64414 32.4998 8.06388 32.4998 9.01806V17.9329C32.4998 18.2694 32.2169 18.5414 31.8644 18.5414H28.5718C28.2379 18.5184 27.9782 18.2556 27.9782 17.9329L27.9735 9.01806C27.9735 7.14197 28.2842 4.38085 25.9423 4.38085C23.5724 4.38085 23.6652 7.07282 23.6652 9.01806V17.9329C23.6652 18.2694 23.3823 18.5414 23.0298 18.5414Z" fill="white" />
                                            <path d="M83.9719 0.20459C88.8646 0.20459 91.5126 4.38085 91.5126 9.69106C91.5126 14.8215 88.5863 18.8917 83.9719 18.8917C79.1674 18.8917 76.5518 14.7155 76.5518 9.51128C76.5518 4.27483 79.1998 0.20459 83.9719 0.20459ZM83.9997 3.63871C81.5696 3.63871 81.4166 6.92993 81.4166 8.98118C81.4166 11.037 81.3841 15.4253 83.9719 15.4253C86.5272 15.4253 86.6478 11.8852 86.6478 9.72793C86.6478 8.30819 86.5875 6.61187 86.1562 5.26588C85.7852 4.09506 85.0478 3.63871 83.9997 3.63871Z" fill="white" />
                                            <path d="M97.8572 18.5414H94.5738C94.2446 18.5184 93.9802 18.2556 93.9802 17.9329L93.9756 1.10806C94.0034 0.799222 94.277 0.559526 94.6109 0.559526H97.6671C97.9546 0.573346 98.1911 0.766956 98.2561 1.0297V3.60183H98.3164C99.2392 1.30166 100.533 0.20459 102.81 0.20459C104.29 0.20459 105.732 0.734689 106.659 2.1867C107.522 3.53269 107.522 5.79598 107.522 7.42315V18.0113C107.485 18.3063 107.211 18.5414 106.887 18.5414H103.58C103.279 18.5184 103.028 18.2971 102.996 18.0113V8.87516C102.996 7.03595 103.209 4.34397 100.932 4.34397C100.13 4.34397 99.3923 4.87868 99.0259 5.68996C98.5622 6.71789 98.5019 7.74121 98.5019 8.87516V17.9329C98.4972 18.2694 98.2097 18.5414 97.8572 18.5414Z" fill="white" />
                                            <path d="M53.9247 10.5071V9.79728C51.541 9.79728 49.0228 10.3043 49.0228 13.0977C49.0228 14.5128 49.7602 15.4716 51.0262 15.4716C51.9537 15.4716 52.7839 14.9047 53.3079 13.9828C53.9572 12.8488 53.9247 11.784 53.9247 10.5071ZM57.2499 18.4955C57.0319 18.6891 56.7165 18.7029 56.4708 18.5739C55.3763 17.6704 55.1815 17.2509 54.5786 16.3889C52.77 18.2235 51.49 18.7721 49.1434 18.7721C46.3701 18.7721 44.209 17.0712 44.209 13.6647C44.209 11.005 45.6605 9.19342 47.7243 8.30839C49.5144 7.52476 52.014 7.38648 53.9247 7.16983V6.74575C53.9247 5.96673 53.985 5.04482 53.5259 4.37183C53.1224 3.76798 52.3526 3.51906 51.6755 3.51906C50.4187 3.51906 49.2964 4.15979 49.0228 5.48734C48.9671 5.78235 48.7492 6.07276 48.4524 6.08659L45.2524 5.74548C44.9835 5.68555 44.6867 5.4689 44.7609 5.05866C45.4982 1.20507 48.9996 0.043457 52.1346 0.043457C53.7392 0.043457 55.8354 0.467536 57.1015 1.67524C58.7061 3.16413 58.553 5.15084 58.553 7.31273V12.4201C58.553 13.9551 59.193 14.6281 59.7959 15.4578C60.0092 15.7528 60.0556 16.1078 59.7866 16.329C59.1142 16.8868 57.9177 17.9239 57.2591 18.5047L57.2499 18.4955Z" fill="white" />
                                            <path d="M10.6982 10.5071V9.79728C8.31444 9.79728 5.79623 10.3043 5.79623 13.0977C5.79623 14.5128 6.53361 15.4716 7.79967 15.4716C8.72719 15.4716 9.55731 14.9047 10.0814 13.9828C10.7306 12.8488 10.6982 11.784 10.6982 10.5071ZM14.0233 18.4955C13.8053 18.6891 13.49 18.7029 13.2442 18.5739C12.1497 17.6704 11.9549 17.2509 11.3521 16.3889C9.5434 18.2235 8.26343 18.7721 5.91681 18.7721C3.14353 18.7721 0.982422 17.0712 0.982422 13.6647C0.982422 11.005 2.43399 9.19342 4.49771 8.30839C6.28782 7.52476 8.78747 7.38648 10.6982 7.16983V6.74575C10.6982 5.96673 10.7584 5.04482 10.2993 4.37183C9.89586 3.76798 9.12602 3.51906 8.44893 3.51906C7.19215 3.51906 6.06985 4.15979 5.79623 5.48734C5.74058 5.78235 5.52262 6.07276 5.22581 6.08659L2.02588 5.74548C1.7569 5.68555 1.46009 5.4689 1.53429 5.05866C2.27167 1.20507 5.77304 0.043457 8.90805 0.043457C10.5127 0.043457 12.6088 0.467536 13.8749 1.67524C15.4795 3.16413 15.3265 5.15084 15.3265 7.31273V12.4201C15.3265 13.9551 15.9665 14.6281 16.5693 15.4578C16.7827 15.7528 16.829 16.1078 16.5601 16.329C15.8876 16.8868 14.6911 17.9239 14.0326 18.5047L14.0233 18.4955Z" fill="white" />
                                        </g>
                                        <defs>
                                            <clipPath id="clip0_2802_7974">
                                                <rect width="106.667" height="32" fill="white" transform="translate(0.917969)" />
                                            </clipPath>
                                        </defs>
                                    </svg>