<svg width="48" height="49" viewBox="0 0 48 49" fill="none" xmlns="http://www.w3.org/2000/svg">
<rect y="0.56543" width="48" height="47.9985" rx="23.9992" fill="url(#paint0_linear_2611_2827)"/>
<path d="M31.7357 25.2925C31.9036 25.105 32 24.8426 32 24.5676C32 24.2926 31.9036 24.0342 31.7357 23.8426L25.45 16.8428C25.1071 16.4595 24.5643 16.4761 24.2393 16.8761C23.9143 17.2761 23.925 17.9094 24.2679 18.2886L29.0036 23.5676H16.8571C16.3821 23.5676 16 24.0134 16 24.5676C16 25.1217 16.3821 25.5675 16.8571 25.5675H29.0036L24.2643 30.8424C23.9214 31.2257 23.9107 31.8548 24.2357 32.2548C24.5607 32.6548 25.1036 32.6673 25.4464 32.2881L31.7321 25.2884L31.7357 25.2925Z" fill="white"/>
<defs>
<linearGradient id="paint0_linear_2611_2827" x1="0.936826" y1="13.0796" x2="50.7933" y2="19.1974" gradientUnits="userSpaceOnUse">
<stop stop-color="#624BED"/>
<stop offset="1" stop-color="#CE5682"/>
</linearGradient>
</defs>
</svg>
