<svg width="65" height="65" viewBox="0 0 65 65" fill="none" xmlns="http://www.w3.org/2000/svg">
<rect x="1.09961" y="0.649109" width="63" height="62.9985" rx="19.5" stroke="white"/>
<path d="M40.3353 32.8762C40.5032 32.6887 40.5996 32.4262 40.5996 32.1512C40.5996 31.8762 40.5032 31.6179 40.3353 31.4263L34.0496 24.4265C33.7068 24.0432 33.1639 24.0598 32.8389 24.4598C32.5139 24.8598 32.5246 25.4931 32.8675 25.8723L37.6032 31.1513H25.4568C24.9818 31.1513 24.5996 31.5971 24.5996 32.1512C24.5996 32.7054 24.9818 33.1512 25.4568 33.1512H37.6032L32.8639 38.426C32.521 38.8094 32.5103 39.4385 32.8353 39.8385C33.1603 40.2385 33.7032 40.251 34.046 39.8718L40.3318 32.872L40.3353 32.8762Z" fill="white"/>
</svg>
