<svg width="92" height="32" viewBox="0 0 92 32" fill="none" xmlns="http://www.w3.org/2000/svg">
<g clip-path="url(#clip0_2802_8003)">
<path d="M74.639 0C71.033 0 67.6844 1.1871 64.9541 3.20001C62.2238 1.1871 58.8753 0 55.2692 0C51.6631 0 48.3146 1.1871 45.5842 3.20001C42.8539 1.1871 39.5569 0 35.8993 0C32.2932 0 28.9447 1.1871 26.2144 3.20001C23.5356 1.1871 20.187 0 16.5294 0C7.61721 0 0.353516 7.1742 0.353516 16C0.353516 24.8258 7.61721 32 16.5294 32C20.1355 32 23.484 30.8129 26.2144 28.8C28.9447 30.8129 32.2932 32 35.8993 32C39.5054 32 42.8539 30.8129 45.5842 28.8C48.2631 30.8129 51.6116 32 55.2692 32C58.8753 32 62.2238 30.8129 64.9541 28.8C67.6329 30.8129 70.9814 32 74.639 32C83.5513 32 90.815 24.8258 90.815 16C90.815 7.1742 83.5513 0 74.639 0ZM64.9541 24.2581C62.9965 22.0387 61.8117 19.1484 61.8117 16C61.8117 12.8516 62.9965 9.96129 64.9541 7.74193C66.9117 9.96129 68.0966 12.8516 68.0966 16C68.0966 19.1484 66.9117 22.0387 64.9541 24.2581ZM45.5842 24.2581C43.6267 22.0387 42.4418 19.1484 42.4418 16C42.4418 12.8516 43.6267 9.96129 45.5842 7.74193C47.5418 9.96129 48.7267 12.8516 48.7267 16C48.7267 19.1484 47.5418 22.0387 45.5842 24.2581ZM26.2144 24.2581C24.2568 22.0387 23.0719 19.1484 23.0719 16C23.0719 12.8516 24.2568 9.96129 26.2144 7.74193C28.172 9.96129 29.3568 12.8516 29.3568 16C29.4084 19.1484 28.172 22.0387 26.2144 24.2581ZM3.70203 16C3.70203 9.03226 9.47177 3.35483 16.5294 3.35483C19.1567 3.35483 21.6295 4.12904 23.6901 5.52258C21.2173 8.30967 19.7234 11.9742 19.7234 16C19.7234 20.0258 21.2173 23.6903 23.6901 26.4774C21.6295 27.8193 19.2082 28.6451 16.5294 28.6451C9.47177 28.6451 3.70203 22.9677 3.70203 16ZM28.7386 26.4774C31.2114 23.6903 32.7053 20.0258 32.7053 16C32.7053 11.9742 31.2114 8.30967 28.7386 5.52258C30.7992 4.18064 33.2205 3.35483 35.8993 3.35483C38.5781 3.35483 40.9993 4.12904 43.06 5.52258C40.5872 8.30967 39.0417 11.9742 39.0417 16C39.0417 20.0258 40.5357 23.6903 43.06 26.4774C40.9993 27.8193 38.5781 28.6451 35.8993 28.6451C33.272 28.6451 30.7992 27.8193 28.7386 26.4774ZM48.1085 26.4774C50.5813 23.6903 52.1267 20.0258 52.1267 16C52.1267 11.9742 50.6328 8.30967 48.1085 5.52258C50.1691 4.18064 52.5904 3.35483 55.2692 3.35483C57.948 3.35483 60.3692 4.12904 62.4299 5.52258C59.9571 8.30967 58.4116 11.9742 58.4116 16C58.4116 20.0258 59.9056 23.6903 62.4299 26.4774C60.3692 27.8193 57.948 28.6451 55.2692 28.6451C52.5904 28.6451 50.1691 27.8193 48.1085 26.4774ZM74.639 28.6451C72.0118 28.6451 69.539 27.871 67.4784 26.4774C69.9511 23.6903 71.4966 20.0258 71.4966 16C71.4966 11.9742 70.0026 8.30967 67.4784 5.52258C69.539 4.18064 71.9602 3.35483 74.639 3.35483C81.6967 3.35483 87.4665 9.03226 87.4665 16C87.4665 22.9677 81.6967 28.6451 74.639 28.6451Z" fill="white"/>
</g>
<defs>
<clipPath id="clip0_2802_8003">
<rect width="90.6667" height="32" fill="white" transform="translate(0.353516)"/>
</clipPath>
</defs>
</svg>
