<svg width="30" height="32" viewBox="0 0 30 32" fill="none" xmlns="http://www.w3.org/2000/svg">
<g clip-path="url(#clip0_2802_8083)">
<path d="M3.57396 12.1445C3.57396 12.0379 3.64013 11.9555 3.7802 11.9555H3.88758C4.24244 11.9555 4.35013 12.2016 4.35013 12.4154C4.35013 12.6122 4.24302 12.8912 3.88758 12.8912H3.78052C3.64008 12.8912 3.57391 12.8094 3.57391 12.7025L3.57396 12.1445Z" fill="white"/>
<path d="M3.57396 14.0648C3.57396 13.9583 3.64013 13.8758 3.7802 13.8758H3.92888C4.32531 13.8758 4.44055 14.1382 4.44055 14.3764C4.44055 14.5902 4.32499 14.8936 3.92888 14.8936H3.78057C3.64013 14.8936 3.57396 14.8115 3.57396 14.7046V14.0648Z" fill="white"/>
<path d="M25.3679 12.2843C25.3679 12.1778 25.434 12.095 25.5742 12.095H25.6897C26.0367 12.095 26.1437 12.3414 26.1437 12.5549C26.1437 12.7602 26.0367 13.0307 25.6897 13.0307H25.5742C25.4337 13.0307 25.3679 12.9492 25.3679 12.842V12.2843Z" fill="white"/>
<path d="M12.8855 13.0304H12.77C12.6295 13.0304 12.5637 12.9486 12.5637 12.8417V12.284C12.5637 12.1774 12.6298 12.095 12.77 12.095H12.8855C13.2325 12.095 13.3396 12.3414 13.3396 12.5549C13.3396 12.7596 13.2325 13.0304 12.8855 13.0304Z" fill="white"/>
<path fill-rule="evenodd" clip-rule="evenodd" d="M3.13628 29.8393C5.35144 31.0879 8.75401 31.5925 14.9055 31.5925C21.0572 31.5925 24.4598 31.0879 26.6614 29.8389C28.3029 28.9224 29.3171 27.541 29.3171 26.226V8.95911C29.3171 5.30626 24.313 0.245605 14.9055 0.245605C9.50121 0.245605 6.09896 1.83928 4.20376 3.18093C1.92179 4.80157 0.494141 7.01968 0.494141 8.95911V26.2397C0.494141 27.5416 1.5081 28.9227 3.13628 29.8393ZM25.9042 28.4745C23.758 29.6804 20.0758 30.0253 14.9826 30.0253C9.88951 30.0253 6.20733 29.6804 4.06144 28.4745C2.77291 27.7523 2.12111 26.7677 2.12111 26.0616C2.12111 25.6599 2.33591 25.4297 2.81416 25.4297H27.1507C27.6293 25.4297 27.8441 25.6598 27.8441 26.0616C27.8444 26.7677 27.192 27.7522 25.9042 28.4745ZM27.1508 9.76447H2.81421C2.3356 9.76447 2.12117 9.5184 2.12117 9.07546C2.12117 6.44922 6.09177 1.813 14.9826 1.813C23.7914 1.813 27.8444 6.44922 27.8444 9.07546C27.8444 9.5184 27.6297 9.76447 27.1508 9.76447ZM7.30494 20.5966C7.23063 20.4819 7.22276 20.4079 7.22276 20.3753C7.22276 20.285 7.27219 20.2195 7.37106 20.1292C7.60224 19.9154 8.17217 19.3822 8.48573 18.8982C8.72504 18.529 8.82391 18.1926 8.82391 17.9139C8.82391 17.1999 8.17211 16.6415 7.4617 16.6415C7.00764 16.6415 6.57846 16.896 6.28972 17.3637C5.90174 17.9872 5.43924 18.7095 5.14236 18.9969C5.068 19.0709 5.0268 19.0872 4.96918 19.0872C4.86994 19.0872 4.82874 19.0214 4.82874 18.9149V18.0945C4.82874 17.2904 4.35013 16.6418 3.48322 16.6418C2.60818 16.6418 2.13738 17.2901 2.13738 18.0945V23.1495C2.13738 23.9535 2.60781 24.6024 3.48322 24.6024C4.35013 24.6024 4.82874 23.9542 4.82874 23.1495V21.9846C4.82874 21.8859 4.86994 21.8122 4.96918 21.8122C5.08083 21.8122 5.12175 21.9059 5.15171 21.9745C5.15724 21.9872 5.16239 21.999 5.16755 22.0092C5.35737 22.4606 5.90998 23.4204 6.42229 23.9869C6.76891 24.3643 7.19814 24.6025 7.65225 24.6025C8.41992 24.6025 9.06416 23.9377 9.06416 23.2236C9.06416 22.7806 8.87397 22.4523 8.51092 22.0587C8.04842 21.5571 7.50331 20.9005 7.30494 20.597V20.5966ZM17.5999 16.1735C18.8958 16.1735 19.7133 15.3529 19.7133 14.1548C19.7133 13.3918 19.2504 12.8664 18.3262 12.8664H18.0624C17.5749 12.8664 17.1952 13.0965 17.1952 13.6134C17.1952 14.073 17.5998 14.2946 17.9052 14.2946C18.062 14.2946 18.1615 14.3438 18.1615 14.4589C18.1615 14.6062 17.9884 14.7049 17.7899 14.7049C17.1706 14.7049 16.7496 14.2698 16.7496 13.4573C16.7496 12.5549 17.3278 12.227 17.7734 12.227C18.0702 12.227 18.2323 12.3098 18.3798 12.3852C18.503 12.4482 18.616 12.506 18.7888 12.506C19.2265 12.506 19.5238 12.1448 19.5238 11.7674C19.5238 11.4884 19.3997 11.2753 19.2099 11.1273C18.8632 10.8728 18.3763 10.6844 17.6499 10.6844C16.3699 10.6844 15.1237 11.5213 15.1237 13.458C15.123 15.3118 16.3697 16.1735 17.5999 16.1735ZM3.08653 16.1243H4.25094C5.34892 16.1243 6.01741 15.394 6.01741 14.483C6.01741 13.7757 5.60689 13.4379 5.49119 13.3427L5.48086 13.3341L5.47881 13.3325C5.43856 13.3001 5.39867 13.2681 5.39867 13.2357C5.39867 13.2035 5.41403 13.1864 5.44101 13.1563C5.44815 13.1483 5.4561 13.1394 5.4648 13.1291C5.62129 12.9486 5.77815 12.6614 5.77815 12.2426C5.77815 11.2583 5.10935 10.7327 4.06926 10.7327H3.08684C2.43473 10.7327 2.12111 11.1107 2.12111 11.6191V15.2378C2.12111 15.7469 2.43473 16.1243 3.08653 16.1243ZM24.6415 16.1651C25.1698 16.1651 25.4586 15.7711 25.4586 15.2789V14.409C25.4586 14.3024 25.5083 14.2532 25.5909 14.2532C25.6897 14.2532 25.7225 14.3106 25.7388 14.409C25.8134 14.8275 26.0114 15.3936 26.2341 15.6811C26.515 16.0507 26.7788 16.1658 27.0433 16.1658C27.4722 16.1658 27.8441 15.829 27.8441 15.4102C27.8441 15.1313 27.7286 14.9259 27.5799 14.7375C27.299 14.3849 27.1259 14.1552 27.0189 13.868C26.994 13.8021 27.0104 13.7445 27.085 13.6874C27.341 13.4905 27.6383 13.0554 27.6383 12.3664C27.6383 11.3241 26.7711 10.7332 25.7225 10.7332H24.7901C24.1379 10.7332 23.8244 11.1103 23.8244 11.6194V15.2795C23.8244 15.7716 24.1128 16.1651 24.6415 16.1651ZM11.0696 16.6412C10.1451 16.6412 9.64128 17.3302 9.64128 18.192V23.0504C9.64128 23.9125 10.1451 24.6015 11.0696 24.6015C11.994 24.6015 12.4976 23.9122 12.4976 23.0504V18.192C12.4976 17.3308 11.9944 16.6412 11.0696 16.6412ZM25.7473 19.8007H25.343C24.6166 19.8007 24.0552 20.1371 24.0552 20.8753C24.0552 21.5483 24.6661 21.8683 25.12 21.8683C25.343 21.8683 25.4998 21.9342 25.4998 22.1063C25.4998 22.3194 25.2356 22.4589 24.955 22.4589C24.022 22.4589 23.3863 21.827 23.3863 20.6533C23.3863 19.3487 24.2532 18.8728 24.9217 18.8728C25.3672 18.8728 25.6091 18.9948 25.8292 19.1058C26.0129 19.1985 26.1814 19.2835 26.4406 19.2835C27.1008 19.2835 27.5467 18.7499 27.5467 18.2083C27.5467 17.8064 27.365 17.4944 27.0763 17.281C26.5724 16.9115 25.8134 16.6405 24.7399 16.6405C22.8166 16.6405 20.9424 17.8467 20.9424 20.6533C20.9424 23.3366 22.816 24.5924 24.6655 24.5924C26.6052 24.5924 27.8353 23.4025 27.8353 21.6627C27.8358 20.5637 27.1428 19.8007 25.7473 19.8007ZM22.6273 16.1243C23.09 16.1242 23.4528 15.8533 23.4528 15.3611C23.4528 14.8767 23.0894 14.6059 22.6272 14.6059H21.8841C21.744 14.6059 21.6778 14.5241 21.6778 14.4172V14.2611C21.6778 14.1545 21.744 14.0724 21.8844 14.0724H22.4541C22.8505 14.0724 23.1642 13.8345 23.1642 13.4157C23.1642 12.9975 22.8505 12.7593 22.4541 12.7593H21.8842C21.7441 12.7593 21.6779 12.6772 21.6779 12.5703V12.4389C21.6779 12.3323 21.7441 12.2502 21.8846 12.2502H22.6273C23.0896 12.2502 23.4529 11.9794 23.4529 11.4872C23.4529 11.0026 23.0895 10.7318 22.6273 10.7318H21.0671C20.4154 10.7318 20.1014 11.1092 20.1014 11.6183V15.237C20.1014 15.7457 20.4151 16.1234 21.0671 16.1234H22.6273V16.1243ZM8.44448 16.1651C9.78177 16.1651 10.4918 15.3689 10.4918 14.3683V11.6025C10.4918 11.1104 10.2031 10.716 9.67445 10.716C9.14608 10.716 8.85734 11.1104 8.85734 11.6025V14.2777C8.85734 14.4742 8.74178 14.704 8.44453 14.704C8.14729 14.704 8.04779 14.4742 8.04779 14.2777V11.6025C8.04779 11.1104 7.75086 10.716 7.22223 10.716C6.69392 10.716 6.40513 11.1104 6.40513 11.6025V14.368C6.40549 15.3692 7.10725 16.1651 8.44448 16.1651ZM14.2398 16.1651C14.6691 16.1651 15.0409 15.8287 15.0409 15.4099C15.0409 15.1309 14.9253 14.9256 14.7767 14.7372L14.7374 14.686C14.5141 14.3954 14.3168 14.1387 14.2156 13.8677C14.1907 13.8018 14.2072 13.7442 14.2818 13.6868C14.5378 13.4902 14.835 13.0552 14.835 12.3658C14.835 11.3235 13.9679 10.7327 12.9193 10.7327H11.986C11.3342 10.7327 11.0203 11.1101 11.0203 11.6191V15.2792C11.0203 15.7714 11.3094 16.1658 11.8377 16.1658C12.3661 16.1658 12.6551 15.7714 12.6551 15.2792V14.4097C12.6551 14.3031 12.7045 14.2535 12.7871 14.2535C12.8862 14.2535 12.919 14.3109 12.9354 14.4097C13.0097 14.8278 13.2077 15.3939 13.4307 15.6817C13.7114 16.0504 13.9753 16.1651 14.2398 16.1651ZM18.9863 16.6412C18.1361 16.6412 17.6739 17.2729 17.6739 18.0691V19.8415C17.6739 19.9888 17.6241 20.0549 17.5334 20.0549C17.4673 20.0549 17.4179 20.0142 17.3602 19.8991L16.2128 17.6838C15.7751 16.8384 15.3211 16.6416 14.8012 16.6416C13.9344 16.6416 13.4554 17.2895 13.4554 18.1024V23.174C13.4554 23.9702 13.9177 24.6019 14.7678 24.6019C15.6183 24.6019 16.0803 23.9699 16.0803 23.174V21.4016C16.0803 21.2543 16.13 21.1878 16.2207 21.1878C16.2869 21.1878 16.3366 21.2289 16.3939 21.3439L17.5413 23.5595C17.979 24.4049 18.4494 24.6018 18.9532 24.6018C19.8201 24.6018 20.299 23.9535 20.299 23.141V18.0694C20.299 17.2732 19.8367 16.6412 18.9863 16.6412Z" fill="white"/>
</g>
<defs>
<clipPath id="clip0_2802_8083">
<rect width="29.3878" height="32" fill="white" transform="translate(0.195312)"/>
</clipPath>
</defs>
</svg>
