<svg width="71" height="32" viewBox="0 0 71 32" fill="none" xmlns="http://www.w3.org/2000/svg">
<g clip-path="url(#clip0_2802_8085)">
<path d="M18.7038 0.0249023C19.5362 0.0249023 20.2152 0.614376 20.2152 1.34027V15.3302C20.2152 16.0603 19.5362 16.6497 18.7038 16.6497C17.8704 16.6497 17.1914 16.0603 17.1914 15.3302V1.34027C17.1914 0.614376 17.8704 0.0249023 18.7038 0.0249023Z" fill="white"/>
<path d="M11.9107 6.30654C11.9107 5.58064 11.2317 4.99033 10.3993 4.99033C9.5659 4.99033 8.88686 5.58064 8.88686 6.30654V12.7023C8.88686 13.4324 9.5659 14.0211 10.3993 14.0211C11.2317 14.0211 11.9107 13.4324 11.9107 12.7023V6.30654Z" fill="white"/>
<path d="M3.60684 9.9365C3.60684 9.21061 2.9278 8.62198 2.0954 8.62198C1.26301 8.62198 0.583008 9.21061 0.583008 9.9365V12.702C0.583008 13.4321 1.26301 14.0216 2.0954 14.0216C2.9278 14.0216 3.60684 13.4321 3.60684 12.702V9.9365Z" fill="white"/>
<path d="M28.5191 6.30654C28.5191 5.58064 27.84 4.99033 27.0076 4.99033C26.1743 4.99033 25.4952 5.58064 25.4952 6.30654V12.7023C25.4952 13.4324 26.1743 14.0211 27.0076 14.0211C27.84 14.0211 28.5191 13.4324 28.5191 12.7023V6.30654Z" fill="white"/>
<path d="M35.3112 8.62198C35.6651 8.62198 35.9908 8.72935 36.2478 8.90892C36.5947 9.14981 36.8176 9.52064 36.8176 9.9365V12.702C36.8176 13.1203 36.5947 13.4924 36.2478 13.734C35.9908 13.914 35.6651 14.0216 35.3112 14.0216L35.3087 14.0216L35.3062 14.0216C34.4738 14.0216 33.7938 13.4321 33.7938 12.702V9.9365C33.7938 9.21061 34.4738 8.62198 35.3062 8.62198L35.3087 8.62198L35.3112 8.62198Z" fill="white"/>
<path d="M51.9146 0.0249023C52.747 0.0249023 53.426 0.614376 53.426 1.34027V15.3302C53.426 16.0603 52.747 16.6497 51.9146 16.6497C51.0812 16.6497 50.4022 16.0603 50.4022 15.3302V1.34027C50.4022 0.614376 51.0812 0.0249023 51.9146 0.0249023Z" fill="white"/>
<path d="M45.1215 6.30654C45.1215 5.58064 44.4424 4.99033 43.61 4.99033C42.7767 4.99033 42.0976 5.58064 42.0976 6.30654V12.7023C42.0976 13.4324 42.7767 14.0211 43.61 14.0211C44.4424 14.0211 45.1215 13.4324 45.1215 12.7023V6.30654Z" fill="white"/>
<path d="M61.7298 6.30654C61.7298 5.58064 61.0508 4.99033 60.2184 4.99033C59.385 4.99033 58.706 5.58064 58.706 6.30654V12.7023C58.706 13.4324 59.385 14.0211 60.2184 14.0211C61.0508 14.0211 61.7298 13.4324 61.7298 12.7023V6.30654Z" fill="white"/>
<path d="M68.522 8.62198C69.3505 8.62198 70.0247 9.21061 70.0247 9.9365V12.702C70.0247 13.4321 69.3505 14.0216 68.522 14.0216C67.6896 14.0216 67.0105 13.4321 67.0105 12.702V9.9365C67.0105 9.21061 67.6896 8.62198 68.522 8.62198Z" fill="white"/>
<path d="M34.8175 23.6535C34.7722 23.6409 33.4903 23.3319 32.437 23.3319C31.2169 23.3319 30.5533 23.6889 30.5533 24.195C30.5533 24.8158 31.3909 25.0456 31.8988 25.185L31.949 25.1988L32.7891 25.4321C34.7654 25.9811 35.6663 27.1626 35.6663 28.446C35.6663 31.0927 33.0003 31.982 30.67 31.982C29.0505 31.982 27.5333 31.7217 27.3838 31.694V29.2695C27.4102 29.2753 27.4465 29.2838 27.4915 29.2944C27.9045 29.3909 29.0604 29.6611 30.2591 29.6611C31.7744 29.6611 32.4708 29.2746 32.4708 28.6775C32.4708 28.1436 31.868 27.8354 31.1127 27.6283C31.0023 27.596 30.8585 27.5558 30.7203 27.5171L30.7193 27.5169C30.6276 27.4912 30.5379 27.4662 30.4626 27.4447C28.767 26.9765 27.353 26.1066 27.353 24.3626C27.353 22.3921 29.0428 21.0691 31.8496 21.0691C33.3321 21.0691 34.7269 21.3832 34.8175 21.4043V23.6535Z" fill="white"/>
<path d="M16.0383 24.2777C16.0313 24.2745 16.0214 24.2698 16.0088 24.2638C15.8017 24.1655 14.8531 23.7151 13.4804 23.7151C11.5079 23.7151 10.1431 24.9118 10.1431 26.5252C10.1431 28.0907 11.451 29.3379 13.4804 29.3379C14.8825 29.3379 15.8663 28.862 16.0292 28.7831L16.0383 28.7787V31.6065L15.9662 31.6245C15.539 31.7316 14.5428 31.9813 13.2614 31.9813C9.83828 31.9813 6.83567 29.9198 6.83567 26.5252C6.83567 23.3791 9.55567 21.0718 13.2614 21.0718C14.6072 21.0718 15.6214 21.3398 15.9773 21.4339L16.0383 21.4499V24.2777Z" fill="white"/>
<path d="M47.7935 24.2638C47.806 24.2698 47.8159 24.2745 47.8229 24.2777V21.4499L47.7619 21.4339C47.406 21.3398 46.3918 21.0718 45.046 21.0718C41.3402 21.0718 38.6202 23.3791 38.6202 26.5252C38.6202 29.9198 41.6229 31.9813 45.046 31.9813C46.3274 31.9813 47.3236 31.7316 47.7508 31.6245L47.8229 31.6065V28.7787L47.8138 28.7831C47.6508 28.862 46.667 29.3379 45.265 29.3379C43.2356 29.3379 41.9276 28.0907 41.9276 26.5252C41.9276 24.9118 43.2925 23.7151 45.265 23.7151C46.6377 23.7151 47.5864 24.1655 47.7935 24.2638Z" fill="white"/>
<path d="M20.2246 21.2589H23.2697V31.7945H20.2246V21.2589Z" fill="white"/>
<path fill-rule="evenodd" clip-rule="evenodd" d="M57.4025 31.9812C61.1141 31.9812 63.7791 29.5391 63.7791 26.5252C63.7791 23.5164 61.1141 21.0718 57.4025 21.0718C53.691 21.0718 51.0298 23.5164 51.0298 26.5252C51.0298 29.5391 53.691 31.9812 57.4025 31.9812ZM54.2543 26.5252C54.2543 24.996 55.596 23.7547 57.4025 23.7547C59.2072 23.7547 60.5527 24.996 60.5527 26.5252C60.5527 28.0579 59.2072 29.2983 57.4025 29.2983C55.596 29.2983 54.2543 28.0579 54.2543 26.5252Z" fill="white"/>
<path d="M68.2875 30.4069V30.5719H67.7493V31.7938H67.5284V30.5719H66.9873V30.4069H68.2875Z" fill="white"/>
<path d="M68.7464 30.4069H68.4002V31.7938H68.622V30.657H68.6326L69.1033 31.7938H69.3126L69.7949 30.657H69.8026V31.7938H70.0293V30.4069H69.6898L69.2297 31.5446H69.2219L68.7464 30.4069Z" fill="white"/>
</g>
<defs>
<clipPath id="clip0_2802_8085">
<rect width="69.4468" height="32" fill="white" transform="translate(0.583008)"/>
</clipPath>
</defs>
</svg>
