<svg width="95" height="32" viewBox="0 0 95 32" fill="none" xmlns="http://www.w3.org/2000/svg">
<g clip-path="url(#clip0_2802_8087)">
<path d="M43.0974 0.556152C42.6539 0.556152 42.1393 0.641353 41.7313 0.79714C40.5653 1.26957 40.0118 2.00291 39.7907 2.72894C39.5561 3.49957 39.7076 4.16407 39.9768 4.68267L44.852 14.071L46.6 3.83963C46.6872 3.32967 46.6169 2.79845 46.3908 2.31946C45.8821 1.24175 44.6195 0.556152 43.0974 0.556152Z" fill="white"/>
<path d="M51.3487 0.556152C49.9171 0.556152 48.5681 1.23527 48.0792 2.31955C47.8847 2.75087 47.804 3.1821 47.8444 3.64191H49.3294C49.944 3.64191 50.3174 3.90905 50.3174 4.08959C48.7616 4.60071 48.1392 5.29295 48.2301 5.83745L49.6075 14.0709L54.4692 4.6605C54.7961 4.02963 54.8636 3.49957 54.629 2.72894C54.408 2.00299 53.8808 1.29165 52.7147 0.819229C52.3067 0.663526 51.7921 0.556152 51.3487 0.556152Z" fill="white"/>
<path d="M33.5624 5.96806C33.802 5.64985 34.1844 5.34367 34.5641 5.1511C35.7522 4.54854 37.3366 4.61091 38.4434 5.26968C38.9436 5.56747 39.3759 5.99148 39.6224 6.46316L44.417 15.6375L34.5482 10.0786C33.8907 9.70819 33.3638 9.22173 33.096 8.52617C32.8444 7.87238 32.8956 6.8537 33.5624 5.96806Z" fill="white"/>
<path d="M30.4668 13.0484C30.2702 13.3824 30.1639 13.8192 30.1757 14.1957C30.2083 15.2434 30.6364 15.9595 31.4825 16.52C32.0002 16.8629 32.9255 17.1492 33.717 17.1493L45.2188 17.15L35.6468 11.7622C35.3192 11.5778 34.6132 11.2553 33.6835 11.2496C32.9017 11.2448 32.2035 11.4651 31.6478 11.8259C30.9279 12.2933 30.6788 12.6881 30.4668 13.0484Z" fill="white"/>
<path d="M60.8789 5.96806C60.6393 5.64985 60.2569 5.34367 59.8772 5.1511C58.6891 4.54854 57.1047 4.61091 55.9979 5.26968C55.4976 5.56747 55.0654 5.99148 54.8189 6.46316L50.0243 15.6375L59.8931 10.0786C60.5506 9.70819 61.0775 9.22173 61.3453 8.52617C61.5969 7.87238 61.5457 6.8537 60.8789 5.96806Z" fill="white"/>
<path d="M63.9833 13.0483C64.1799 13.3824 64.2862 13.8192 64.2744 14.1956C64.2418 15.2433 63.8137 15.9594 62.9676 16.5199C62.4498 16.8628 61.5246 17.1491 60.7329 17.1492L49.2046 17.1499L58.7898 11.7621C59.1177 11.5779 59.8315 11.2495 60.8092 11.2495C61.591 11.2495 62.2758 11.465 62.8316 11.8258C63.5322 12.2807 63.7592 12.667 63.9663 13.0194L63.9833 13.0483Z" fill="white"/>
<path d="M10.9808 30.6242L10.0791 29.4875C9.46888 29.8724 8.34095 30.5296 6.64145 30.5296C3.86935 30.5296 1.81387 28.8927 1.81387 26.3615C1.81387 23.9216 3.83181 22.2091 6.64155 22.2091C8.42128 22.2091 9.55701 22.9158 9.89116 23.1249L10.868 21.9881C9.95232 21.3748 8.52176 20.8355 6.66022 20.8355C2.87915 20.8355 0.0292969 23.1703 0.0292969 26.3615C0.0292969 29.4786 2.68441 31.9031 6.64145 31.903C8.568 31.903 10.0935 31.2229 10.9808 30.6242Z" fill="white"/>
<path d="M46.9717 26.3615C46.9717 28.8925 49.0272 30.5295 51.7994 30.5295C53.4989 30.5295 54.6267 29.8724 55.2369 29.4875L56.1386 30.6242C55.2515 31.2228 53.7258 31.9031 51.7994 31.9031C47.8424 31.9031 45.1871 29.4785 45.1871 26.3615C45.1871 23.1702 48.037 20.8354 51.8182 20.8354C53.6797 20.8354 55.1102 21.3747 56.0259 21.988L55.049 23.1247C54.7149 22.9157 53.5791 22.209 51.7994 22.209C48.9897 22.209 46.9717 23.9215 46.9717 26.3615Z" fill="white"/>
<path fill-rule="evenodd" clip-rule="evenodd" d="M19.2649 31.9031C23.0806 31.9031 25.8207 29.4033 25.8207 26.3615C25.8207 23.2772 22.9986 20.8354 19.2649 20.8354C15.4871 20.8354 12.6903 23.2396 12.6903 26.3615C12.6903 29.5077 15.5457 31.9031 19.2649 31.9031ZM19.2649 22.209C21.9975 22.209 24.0174 23.894 24.0174 26.3615C24.0174 28.8901 21.9499 30.5295 19.2649 30.5295C16.57 30.5295 14.4748 28.8564 14.4748 26.3615C14.4748 23.8817 16.57 22.209 19.2649 22.209Z" fill="white"/>
<path d="M35.5698 29.8032L38.8572 21.0092H41.3366L43.3653 31.7294H41.5995L39.9652 22.8406H39.8714L36.5277 31.7294H34.499L31.0801 22.8406H30.9674L29.3707 31.7294H27.5863L29.6151 21.0092H32.0946L35.4759 29.8032H35.5698Z" fill="white"/>
<path d="M77.1617 25.5666C77.5182 25.6404 77.8707 25.7133 78.0229 25.7457C81.0994 26.3992 81.6672 27.5265 81.6672 28.6507C81.6672 30.4036 79.966 31.903 76.6141 31.903C74.4769 31.903 72.9183 31.3201 71.8992 30.6084L72.9135 29.4875C73.9561 30.1654 75.109 30.6242 76.7644 30.6242C78.8873 30.6242 79.9201 29.7927 79.9201 28.7771C79.9201 27.9608 79.3038 27.4914 77.6661 27.1665C77.1653 27.0659 76.6644 26.9659 76.1633 26.8666C73.3979 26.3213 72.4627 25.2999 72.4627 23.9141C72.4627 22.2506 74.0155 20.8672 77.0837 20.8672C79.3856 20.8672 80.8468 21.5934 81.3854 21.9092L80.3897 23.0458C79.6736 22.6247 78.7127 22.1459 77.0085 22.1459C75.1474 22.1459 74.2284 22.8374 74.2284 23.7879C74.2284 24.8468 75.4525 25.2107 76.4263 25.4141C76.6159 25.4537 76.89 25.5104 77.1617 25.5666Z" fill="white"/>
<path fill-rule="evenodd" clip-rule="evenodd" d="M70.4339 31.7294L65.1743 21.0092H63.1456L57.9235 31.7294H59.7831L61.0885 28.9506H67.22L68.5367 31.7294H70.4339ZM64.1975 22.5723L66.599 27.6402L61.704 27.6402L64.0849 22.5723H64.1975Z" fill="white"/>
<path d="M83.6581 21.0092H94.4217V22.3513H89.9133V31.7294H88.1664V22.3513H83.6581V21.0092Z" fill="white"/>
</g>
<defs>
<clipPath id="clip0_2802_8087">
<rect width="94.6939" height="32" fill="white" transform="translate(0.0292969)"/>
</clipPath>
</defs>
</svg>
