<svg width="94" height="32" viewBox="0 0 94 32" fill="none" xmlns="http://www.w3.org/2000/svg">
<g clip-path="url(#clip0_2802_7984)">
<path d="M65.9387 20.0726C65.9328 20.0584 65.9294 20.0431 65.9287 20.0264C65.9294 20.0308 65.9294 20.0322 65.9294 20.0348C65.9446 20.1934 65.987 20.4918 66.0214 20.715C66.075 20.6149 66.1281 20.5086 66.1844 20.3959C66.2268 20.3104 66.2055 20.2839 66.1684 20.2703C66.0619 20.2328 65.9533 20.1541 65.9387 20.0726Z" fill="white"/>
<path d="M67.7875 17.6688C67.8028 17.8389 67.9349 17.8597 68.0429 17.7102C68.0713 17.6688 68.1037 17.6182 68.1422 17.5611C68.1117 17.521 68.0807 17.482 68.0481 17.4423C67.8974 17.2678 67.5391 16.8911 67.1924 16.5957C67.5373 16.917 67.7478 17.3092 67.7875 17.6688Z" fill="white"/>
<path d="M60.8711 5.95215C60.887 5.97404 60.9009 5.99738 60.9148 6.0224C60.901 5.99555 60.887 5.97087 60.8711 5.95215Z" fill="white"/>
<path d="M46.7007 0.603516C21.2502 0.603516 0.619141 7.61956 0.619141 16.2772C0.619141 24.9333 21.2501 31.9505 46.7007 31.9505C72.1487 31.9505 92.779 24.9333 92.779 16.2772C92.779 7.61956 72.1487 0.603516 46.7007 0.603516ZM46.7007 1.96109C71.2569 1.96109 91.1605 8.36916 91.1605 16.277C91.1605 24.1848 71.2569 30.5942 46.7007 30.5942C22.1443 30.5942 2.23958 24.1848 2.23958 16.277C2.23958 8.36916 22.1443 1.96109 46.7007 1.96109ZM34.678 4.50731C34.024 4.50933 33.3668 4.53447 32.7051 4.58791C28.3098 4.94946 24.1264 7.36803 24.1186 11.0396C24.1142 12.9012 25.4683 14.41 27.5669 14.3434C30.033 14.2622 32.0576 12.3313 33.1173 9.89705C33.5198 8.97344 32.7745 8.5898 32.4203 9.12153C31.7877 10.0796 30.896 10.8233 29.9317 11.2851C28.7711 11.8402 27.5311 11.6903 27.1554 10.7692C26.6267 9.47046 27.7256 7.52684 30.2333 6.61201C33.8552 5.30166 37.6452 6.16835 41.2919 6.83793C41.3439 6.83793 41.538 6.94318 41.366 7.03067C40.7129 7.37831 40.0705 7.66163 39.0684 8.50388C38.3505 9.10504 37.4104 9.9052 36.6832 10.7768C35.9615 11.6358 35.4497 12.402 34.7727 13.2513C34.6784 13.3739 34.5623 13.3684 34.5636 13.3684C32.9139 13.6406 31.2985 13.823 29.8198 14.8281C29.5141 15.0342 29.3813 15.4002 29.5668 15.6807C29.7337 15.9289 30.1144 15.9554 30.3793 15.767C31.2983 15.0955 32.2442 14.7793 33.3288 14.7501C33.3762 14.7529 33.3988 14.7608 33.4122 14.789C33.4206 14.8053 33.4154 14.8389 33.3959 14.8641C31.7709 17.0671 31.3644 17.5647 30.142 18.9307C29.5168 19.6326 28.9013 20.2252 28.2141 20.8418C25.4385 23.3619 22.4534 23.3184 21.3824 21.7381C20.7425 20.7901 20.8269 19.7947 21.2462 18.9689C21.7624 17.9573 22.8064 17.2164 23.6738 16.7834C23.9958 16.6227 24.0888 16.22 23.7663 15.8534C23.561 15.6141 23.0639 15.5718 22.6938 15.6381C21.5567 15.8433 20.2135 16.683 19.4196 17.6938C18.5252 18.828 18.0783 20.2051 18.2282 21.7501C18.4976 24.5383 20.847 26.1491 23.5139 26.1304C25.6362 26.1142 27.6358 25.4861 30.0412 23.0995C32.2836 20.8739 34.3261 17.5495 36.2388 14.4666C36.2987 14.3682 36.3417 14.3151 36.6321 14.2798C37.8321 14.1332 39.6033 13.966 40.7389 13.9019C40.9914 13.8887 41.0423 13.8913 41.1437 14.0146C41.4397 14.3793 41.8837 14.6886 42.2398 14.877C42.4131 14.969 42.4959 15.0149 42.632 15.0175C42.8002 15.0208 42.931 14.9324 43.0154 14.8386C43.136 14.7095 43.1695 14.5408 43.1042 14.4321C43.0364 14.318 42.2441 13.8888 42.2209 13.7153C42.2033 13.6071 42.3248 13.581 42.3248 13.581C42.9067 13.4026 43.5124 13.0357 43.8793 12.3488C44.2399 11.6721 44.2984 10.7697 43.639 10.2677C43.0598 9.82699 42.1852 9.89669 41.4871 10.5086C40.8048 11.1031 40.5787 11.9672 40.6711 12.7251C40.6874 12.8561 40.6804 12.9009 40.4973 12.9158C39.4478 12.9978 38.4365 13.026 37.3123 13.0843C37.2369 13.0896 37.2131 13.0412 37.2568 12.9903C38.5517 10.7916 40.485 9.22629 42.6236 7.68446C42.7653 7.58057 42.7221 7.38308 42.7165 7.21804C46.5776 8.03793 50.3087 9.5638 54.3144 9.53133C55.9708 9.51807 57.5568 9.27165 59.0728 8.45906C60.406 7.74838 60.9468 7.09106 60.9864 6.40822C61.0176 5.93598 60.6818 5.6377 60.2033 5.73911C56.1559 6.64813 52.2952 6.63783 48.2682 6.16145C43.6692 5.61615 39.2558 4.49316 34.678 4.50731ZM42.7565 10.8784C42.851 10.8834 42.9395 10.9143 43.0111 10.9743C43.2244 11.1523 43.1237 11.5967 42.9082 11.9044C42.6727 12.2436 42.2734 12.5367 41.9092 12.608C41.8362 12.6212 41.7729 12.5908 41.7427 12.4326C41.6834 12.014 41.8231 11.4531 42.2805 11.0582C42.424 10.9342 42.5988 10.8701 42.7565 10.8784ZM75.2481 10.9595C74.5122 10.9595 73.547 10.9612 72.7802 10.9612C72.5975 10.9612 72.5029 10.9831 72.4168 11.1488C72.134 11.6788 68.6849 16.7298 68.0428 17.7107C67.9348 17.8602 67.8028 17.8394 67.7876 17.6692C67.7226 17.0866 67.2076 16.4171 66.3966 16.0968C65.7784 15.8516 65.1739 15.8072 64.5457 15.8888C63.4116 16.0376 62.4009 16.6228 61.5123 17.2819C60.1731 18.2771 59.0179 19.5664 57.5264 20.5192C56.712 21.0377 55.5973 21.4899 54.8513 20.8148C54.1761 20.2033 54.2523 18.8442 55.2852 17.7935C55.3942 17.6835 55.5247 17.7754 55.5042 17.8743C55.4069 18.3497 55.5267 18.8223 55.8956 19.1537C56.3463 19.5482 56.9911 19.5931 57.5432 19.3298C58.1946 19.0143 58.5774 18.4054 58.689 17.7141C58.8619 16.6415 58.0172 15.6954 56.9602 15.6197C56.1016 15.5609 55.2782 15.8528 54.4759 16.5001C54.0739 16.8261 53.8449 17.0671 53.4973 17.5507C53.4125 17.6695 53.2823 17.6816 53.2863 17.5058C53.3267 16.1327 52.7453 15.3603 51.5835 15.3349C50.6821 15.3142 49.7188 15.7919 48.968 16.377C48.145 17.0228 47.4255 17.8789 46.6543 18.6832C46.5584 18.7823 46.4745 18.7777 46.4477 18.5855C46.4244 17.6758 46.1901 16.7944 45.7593 16.1689C45.6068 15.9512 45.2863 15.8433 45.0167 15.9906C44.8923 16.0572 44.4588 16.2517 44.1439 16.5C43.9872 16.6259 43.9266 16.808 43.9951 17.0418C44.4114 18.4007 44.3197 19.946 43.7558 21.2512C43.2378 22.4464 42.2308 23.5248 41.0474 23.8895C40.2678 24.1309 39.4571 24.0127 38.9557 23.3373C38.2668 22.4049 38.545 20.7838 39.5714 19.4375C40.4779 18.2525 41.7882 17.4994 43.0956 17.0145C43.2496 16.9565 43.2812 16.8601 43.2378 16.7323C43.1666 16.5219 43.0537 16.2364 43.007 16.1057C42.8872 15.794 42.5511 15.743 42.1415 15.7868C41.1917 15.8948 40.3349 16.2129 39.4885 16.6556C37.2722 17.8155 36.1609 20.0607 35.6736 21.2617C35.4392 21.8384 35.2386 22.1985 34.9794 22.5177C34.6299 22.9468 34.1917 23.3373 33.3894 24.0258C33.317 24.0889 33.2629 24.2207 33.3238 24.343C33.4057 24.5087 33.8228 25.0841 33.9404 25.1355C34.0712 25.1983 34.2228 25.1107 34.2833 25.068C34.8447 24.6961 35.516 24.1071 35.8447 23.7074C35.9598 23.5706 36.0782 23.628 36.1392 23.8358C36.4459 24.9051 37.249 25.778 38.3593 26.143C40.3916 26.8129 42.4999 25.8432 44.0908 24.1556C45.1022 23.083 45.4671 22.3931 45.8544 21.9242C46.5111 21.1287 47.8069 19.3493 49.35 18.2068C49.9159 17.7858 50.5858 17.4645 50.9226 17.6777C51.1928 17.8486 51.2802 18.2468 50.8465 19.0176C49.2732 21.8254 46.958 25.1245 46.5334 25.9246C46.456 26.0635 46.5234 26.1725 46.6721 26.1725C47.4953 26.1687 48.3116 26.1705 49.059 26.1705C49.1835 26.1647 49.2393 26.1093 49.3016 26.0235C50.509 24.1763 51.6454 22.4179 52.8635 20.6004C52.9316 20.4933 52.9946 20.5762 52.9973 20.623C53.0224 21.0448 53.1284 21.6218 53.3844 22.0005C53.8448 22.701 54.4974 23.0018 55.2211 23.0062C55.7969 23.0127 56.088 22.9271 56.7089 22.7006C57.2141 22.5175 57.6198 22.277 57.9311 22.0596C58.1129 21.9363 58.1448 22.1428 58.14 22.1745C57.8609 23.6409 58.2057 25.3785 59.6973 26.0989C61.4818 26.9587 63.4427 25.7502 64.571 24.6591C64.6812 24.5539 64.7999 24.565 64.8111 24.7915C64.835 25.2081 65.0276 25.7026 65.3802 26.0486C66.3257 26.9758 68.2335 26.6084 70.148 25.1602C71.3772 24.2329 72.6634 22.923 73.8253 21.5356C73.8684 21.4822 73.9004 21.3954 73.8173 21.3084C73.6405 21.1274 73.3842 20.9202 73.2091 20.7606C73.1289 20.6944 73.0116 20.7135 72.9439 20.7634C71.7532 21.8703 70.6812 23.1324 69.1318 24.1764C68.6093 24.5327 67.7766 24.8202 67.4024 24.3256C67.2568 24.1338 67.2732 23.8676 67.417 23.5191C67.8692 22.4177 75.0212 11.7766 75.3925 11.1488C75.4561 11.0397 75.3891 10.9595 75.2481 10.9595ZM65.2265 17.6126C65.4137 17.611 65.5891 17.6462 65.7487 17.7212C66.6296 18.132 66.3485 19.1287 65.9545 19.9113C65.9249 19.9718 65.923 20.0232 65.9386 20.0727C65.9531 20.1542 66.0618 20.233 66.1682 20.2704C66.2054 20.284 66.2265 20.3105 66.1841 20.396C65.8798 21.033 65.6005 21.4002 65.2194 21.9535C64.8691 22.4649 64.4739 22.8639 63.9956 23.2475C63.2743 23.8309 62.2725 24.466 61.4442 24.039C61.0763 23.8523 60.9175 23.3495 60.9248 22.942C60.9439 21.7967 61.4636 20.6208 62.4262 19.4652C63.3798 18.318 64.415 17.6195 65.2265 17.6126Z" fill="white"/>
</g>
<defs>
<clipPath id="clip0_2802_7984">
<rect width="92.7347" height="32" fill="white" transform="translate(0.619141)"/>
</clipPath>
</defs>
</svg>
