<svg width="78" height="32" viewBox="0 0 78 32" fill="none" xmlns="http://www.w3.org/2000/svg">
<g clip-path="url(#clip0_2802_8030)">
<path fill-rule="evenodd" clip-rule="evenodd" d="M67.5056 22.7107C64.6687 22.7107 63.9254 20.8588 63.9878 17.3626C64.058 13.8627 65.4057 12.4216 67.2311 12.4216C70.2068 12.4216 70.7442 14.7535 70.7442 17.1556C70.7442 19.5561 70.3377 22.7107 67.5056 22.7107ZM58.2486 8.30654V31.9727H64.1235V25.4539C64.1235 24.9739 64.5954 25.0452 64.9353 25.4539C65.2747 25.8684 66.7592 26.8955 69.3268 26.8955C73.9865 26.8955 76.6846 22.7804 76.6846 17.1556C76.6846 9.88383 72.1621 7.82655 69.2551 7.82655C66.3641 7.82655 65.0667 9.4092 64.9779 9.51753L64.9759 9.52C64.5663 10.019 64.058 10.5471 64.058 9.26653V8.30654H58.2486ZM19.6268 0.625717H13.3471V17.499C13.3471 19.6925 11.9292 20.9952 9.63389 20.9952C7.33966 20.9952 6.12394 19.2812 6.12394 17.4293V14.4126H0.046875V17.499C0.046875 20.652 0.991803 26.2799 9.70146 26.2799C18.4101 26.2799 19.6268 20.2417 19.6268 17.3628V0.625717ZM32.7599 14.8242C32.7599 13.1076 31.8166 11.4616 29.6559 11.4616C27.5628 11.4616 26.8196 12.9692 26.8196 14.8242H32.7599ZM29.0504 7.62113C33.9819 7.62113 38.3011 9.54111 38.3011 18.3902H26.6215C26.6215 21.2026 27.7681 22.369 29.7937 22.369C31.8197 22.369 32.4943 20.7215 32.4943 20.7215H38.2351C38.2351 23.2604 34.7912 26.69 29.5909 26.6219C23.6511 26.6219 20.7472 22.1631 20.7472 17.5669C20.7472 12.9692 23.3112 7.62113 29.0504 7.62113ZM48.3259 11.4616C50.4865 11.4616 51.431 13.1076 51.431 14.8242H45.489C45.489 12.9692 46.2339 11.4616 48.3259 11.4616ZM56.9706 18.3902C56.9706 9.54111 52.6524 7.62113 47.7214 7.62113C41.9838 7.62113 39.4167 12.9692 39.4167 17.5669C39.4167 22.1631 42.3206 26.6219 48.2635 26.6219C53.4622 26.69 56.9067 23.2604 56.9067 20.7215H51.1659C51.1659 20.7215 50.4902 22.369 48.4662 22.369C46.4392 22.369 45.2915 21.2026 45.2915 18.3902H56.9706ZM72.8394 29.1349C72.8394 28.1976 73.5904 27.4362 74.5161 27.4362C75.4387 27.4362 76.1882 28.1976 76.1882 29.1349C76.1882 30.0706 75.4387 30.8368 74.5161 30.8368C73.5904 30.8368 72.8394 30.0706 72.8394 29.1349ZM72.646 29.1349C72.646 30.1836 73.4818 31.0349 74.5161 31.0349C75.5437 31.0349 76.3841 30.1836 76.3841 29.1349C76.3841 28.0862 75.5437 27.235 74.5161 27.235C73.4818 27.235 72.646 28.0862 72.646 29.1349ZM74.8767 29.1755L75.2649 30.107H75.0077L74.6376 29.2346H74.0742V30.107H73.8429V28.093H74.6225C74.991 28.093 75.2452 28.3216 75.2452 28.6575C75.2452 28.7905 75.1917 28.9373 75.1064 29.0303C75.0409 29.1016 74.9999 29.1322 74.8767 29.1755ZM74.0679 28.3121V29.0303H74.5856C74.8387 29.0303 74.9936 28.8851 74.9936 28.6511C74.9936 28.4452 74.8476 28.3121 74.6178 28.3121H74.0679Z" fill="white"/>
</g>
<defs>
<clipPath id="clip0_2802_8030">
<rect width="77.0612" height="32" fill="white" transform="translate(0.0205078)"/>
</clipPath>
</defs>
</svg>
