<svg width="72" height="32" viewBox="0 0 72 32" fill="none" xmlns="http://www.w3.org/2000/svg">
<g clip-path="url(#clip0_2802_8031)">
<path fill-rule="evenodd" clip-rule="evenodd" d="M27.2904 26.9884C33.3119 20.8674 33.3115 10.9425 27.2898 4.82286C21.268 -1.29791 11.5048 -1.29864 5.48466 4.82226C-0.536832 10.9432 -0.53647 20.8681 5.48525 26.9878C11.5069 33.1091 21.2702 33.1092 27.2904 26.9884ZM11.7097 12.8479C12.0613 12.8462 12.4044 12.7386 12.696 12.5387C12.9874 12.3389 13.2142 12.0558 13.3475 11.7252C13.4809 11.3945 13.5149 11.031 13.4452 10.6807C13.3755 10.3304 13.2054 10.0089 12.9562 9.75682C12.7069 9.50474 12.3898 9.33328 12.0449 9.2642C11.7 9.19513 11.3426 9.23147 11.018 9.36861C10.6933 9.50584 10.4159 9.73764 10.2207 10.035C10.0256 10.3323 9.92149 10.6816 9.92149 11.039C9.92198 11.2771 9.96869 11.5128 10.0589 11.7326C10.1491 11.9524 10.281 12.152 10.447 12.32C10.6131 12.4879 10.8101 12.621 11.0267 12.7116C11.2434 12.8022 11.4754 12.8485 11.7097 12.8479ZM28.0186 16.4017H20.1774V15.221H29.1678C29.18 15.4497 29.1861 15.6783 29.1861 15.9097C29.1861 23.0191 23.4861 28.7822 16.4565 28.7822C9.4267 28.7822 3.72572 23.0227 3.72572 15.9097C3.72572 8.79725 9.42489 3.03713 16.4553 3.03713C16.6409 3.03713 16.8256 3.04094 17.0094 3.04867V4.22052C16.8256 4.21219 16.6415 4.20808 16.457 4.20808C10.0673 4.20808 4.88555 9.44716 4.88555 15.9085C4.88555 22.3699 10.0666 27.6099 16.457 27.6099C22.6718 27.6099 27.7489 22.653 28.0176 16.4345L28.0186 16.4017ZM20.1595 21.3206H17.0083V9.28582H15.8433V22.5093H17.011V22.5014H20.1622L20.1595 21.3206Z" fill="white"/>
<path d="M66.7395 18.2289H62.9887L62.9889 14.4488H70.9823V24.2827C69.335 25.4564 66.31 26.2572 63.215 26.2572C56.4747 26.2572 53.4113 22.5764 53.4113 15.7865C53.4113 8.96272 56.8016 5.38758 63.2495 5.39019C66.1174 5.39019 69.1719 6.15899 70.9219 8.6957L68.056 11.3722C66.9696 9.96724 65.6591 9.23048 63.3492 9.23048C59.2044 9.23048 57.8909 11.6721 57.8909 15.8211C57.8909 20.1686 59.2705 22.3094 63.4193 22.3094C64.7001 22.3094 66.0512 22.0425 66.7395 21.7756V18.2289Z" fill="white"/>
<path d="M52.8595 22.0089H43.3143L43.3146 5.68767H38.7078V25.9561H52.8595V22.0089Z" fill="white"/>
</g>
<defs>
<clipPath id="clip0_2802_8031">
<rect width="70.5306" height="32" fill="white" transform="translate(0.664062)"/>
</clipPath>
</defs>
</svg>
