<svg width="192" height="24" viewBox="0 0 192 24" fill="none" xmlns="http://www.w3.org/2000/svg">
    <path fillRule="evenodd" clipRule="evenodd" d="M48.4523 10.3898L45.1928 17.9781H43.5888L40.3466 10.3898V17.9781H37.6562V5.92296H41.2951L44.3995 13.5458L47.521 5.92296H51.1427V17.9781H48.4523V10.3898ZM65.8284 16.5202C64.5371 17.7432 62.9476 18.3545 61.0595 18.3545C59.1712 18.3545 57.5816 17.7432 56.2906 16.5202C54.9993 15.2972 54.3537 13.7761 54.3537 11.9563C54.3537 10.1369 54.9993 8.61555 56.2906 7.39252C57.5816 6.16961 59.1712 5.55816 61.0595 5.55816C62.9476 5.55816 64.5371 6.16961 65.8284 7.39252C67.1194 8.61555 67.7653 10.1369 67.7653 11.9563C67.7653 13.7761 67.1194 15.2972 65.8284 16.5202ZM64.86 11.9652C64.86 10.8605 64.4946 9.91819 63.7637 9.13836C63.0328 8.35842 62.1344 7.96857 61.0685 7.96857C60.0026 7.96857 59.1043 8.35842 58.3737 9.13836C57.6426 9.91819 57.2773 10.8605 57.2773 11.9652C57.2773 13.0701 57.6426 14.0095 58.3737 14.7833C59.1043 15.5572 60.0026 15.9441 61.0685 15.9441C62.1344 15.9441 63.0328 15.5572 63.7637 14.7833C64.4946 14.0095 64.86 13.0701 64.86 11.9652ZM80.2359 7.50103C81.423 8.55304 82.0168 10.0163 82.0168 11.8902C82.0168 13.7644 81.4379 15.2476 80.2804 16.3397C79.1229 17.4322 77.3568 17.9781 74.9823 17.9781H70.7259V5.92296H75.1246C77.3447 5.92296 79.0486 6.44902 80.2359 7.50103ZM78.1968 14.6669C78.8793 14.046 79.2208 13.1435 79.2208 11.9591C79.2208 10.7751 78.8793 9.86375 78.1968 9.22568C77.5138 8.58749 76.4662 8.26857 75.0536 8.26857H73.5042V15.5981H75.2671C76.5376 15.5981 77.5138 15.2877 78.1968 14.6669ZM88.4747 15.1323C88.9344 15.6902 89.553 15.9688 90.3308 15.9688C91.1085 15.9688 91.7243 15.6902 92.178 15.1323C92.6316 14.5748 92.8586 13.8131 92.8586 12.8472V5.93452H95.6161V12.9334C95.6161 14.6813 95.1212 16.0236 94.1312 16.9606C93.1414 17.8977 91.8745 18.3661 90.3308 18.3661C88.7868 18.3661 87.5173 17.8948 86.5214 16.9519C85.5255 16.0092 85.0277 14.6696 85.0277 12.9334V5.93452H87.7852V12.8472C87.7852 13.8131 88.0153 14.5748 88.4747 15.1323ZM102.372 8.28736C102.109 8.50583 101.977 8.79488 101.977 9.15462C101.977 9.51472 102.138 9.80064 102.46 10.0131C102.781 10.2253 103.524 10.4762 104.687 10.7652C105.851 11.0545 106.754 11.4881 107.397 12.066C108.04 12.6444 108.362 13.4882 108.362 14.597C108.362 15.7063 107.95 16.6058 107.125 17.2961C106.301 17.9863 105.216 18.3316 103.872 18.3316C101.93 18.3316 100.182 17.6059 98.627 16.1545L100.258 14.1368C101.58 15.305 102.802 15.8889 103.924 15.8889C104.427 15.8889 104.822 15.7802 105.108 15.5617C105.395 15.3435 105.538 15.0484 105.538 14.6767C105.538 14.3051 105.386 14.0102 105.082 13.7916C104.778 13.5737 104.176 13.3524 103.275 13.128C101.848 12.7859 100.805 12.3404 100.144 11.7918C99.4834 11.2431 99.1532 10.3819 99.1532 9.20773C99.1532 8.03384 99.5712 7.12804 100.407 6.49094C101.243 5.85383 102.287 5.53516 103.539 5.53516C104.357 5.53516 105.176 5.67679 105.994 5.95993C106.813 6.2432 107.526 6.64449 108.134 7.16357L106.748 9.18124C105.684 8.36709 104.585 7.95989 103.451 7.95989C102.995 7.95989 102.635 8.06913 102.372 8.28736ZM124.089 15.7704C125.494 15.7704 126.642 15.2336 127.533 14.1599L129.365 15.9829C127.911 17.5642 126.199 18.3545 124.227 18.3545C122.255 18.3545 120.63 17.7527 119.354 16.5492C118.078 15.3458 117.439 13.8266 117.439 11.9917C117.439 10.1571 118.09 8.62615 119.391 7.3989C120.691 6.17178 122.282 5.55816 124.162 5.55816C126.263 5.55816 128.022 6.33112 129.439 7.87667L127.662 9.82364C126.758 8.73815 125.634 8.19535 124.291 8.19535C123.216 8.19535 122.297 8.53462 121.534 9.21303C120.771 9.89169 120.389 10.8059 120.389 11.9563C120.389 13.1069 120.749 14.0302 121.469 14.7262C122.191 15.4225 123.064 15.7704 124.089 15.7704ZM142.228 9.92421C142.228 11.8558 141.463 13.1034 139.935 13.6665L142.986 17.9781H139.676L137.002 14.1321H135.14V17.9781H132.449V5.92296H137.02C138.894 5.92296 140.23 6.23935 141.029 6.87151C141.829 7.50404 142.228 8.52149 142.228 9.92421ZM138.985 11.2036C139.319 10.9048 139.485 10.5825 139.485 9.93276C139.485 9.28337 139.313 8.83763 138.969 8.59628C138.623 8.3548 138.02 8.23401 137.157 8.23401H135.14V11.6521H137.105C138.026 11.6521 138.652 11.5026 138.985 11.2036ZM154.278 5.92296V8.32036H147.987V10.8038H154.278V13.0975H147.987V15.5981H154.278V17.9781H145.296V5.92296H154.278ZM166.694 17.9781L165.574 15.3739H160.521L159.399 17.9781H156.537L161.745 5.92296H164.349L169.557 17.9781H166.694ZM163.056 9.51015L161.538 13.0112H164.556L163.056 9.51015ZM176.457 8.25123V17.9781H173.766V8.25123H170.352V5.92296H179.871V8.25123H176.457ZM191.915 5.92296V8.32036H185.623V10.8038H191.915V13.0975H185.623V15.5981H191.915V17.9781H182.933V5.92296H191.915Z" fill="white" />
    <path fillRule="evenodd" clipRule="evenodd" d="M5.42408 1.20117C9.3509 3.18548 12.0436 7.25634 12.0436 11.9565C12.0436 18.608 6.65156 24.0001 0 24.0001V20.6128C4.78083 20.6128 8.65634 16.7372 8.65634 11.9565C8.65634 9.00928 7.18233 6.40762 4.93246 4.84436C4.90657 4.58398 4.89272 4.32011 4.89272 4.05286C4.89272 3.04722 5.08144 2.0859 5.42408 1.20117Z" fill="white" />
    <path fillRule="evenodd" clipRule="evenodd" d="M7.90382 11.9564C7.90382 12.9617 7.71546 13.9224 7.37306 14.8065C3.44624 12.8223 0.75293 8.75293 0.75293 4.05279C0.75293 2.63069 1.00018 1.26663 1.45266 0C2.60728 0.138863 3.71132 0.441398 4.74165 0.883398C4.35493 1.86519 4.14019 2.93358 4.14019 4.05279C4.14019 6.99926 5.61361 9.59996 7.86263 11.163C7.88877 11.4241 7.90382 11.6883 7.90382 11.9564Z" fill="white" />
    <path d="M24.7164 4.08887C23.4461 4.20918 22.2645 4.63143 21.2412 5.28143C20.6442 9.47983 17.0366 12.7087 12.6733 12.7087C12.6657 12.7087 12.6582 12.7081 12.6508 12.7081C12.5828 13.8803 12.3576 15.01 11.9951 16.0766C12.2196 16.089 12.4457 16.096 12.6733 16.096C19.3126 16.096 24.6968 10.7236 24.7164 4.08887Z" fill="white" />
    <path d="M25.4693 20.6129C22.0752 20.6129 19.1391 18.6583 17.7205 15.8145C16.6809 16.2613 15.5703 16.5739 14.4102 16.7313C16.259 21.0074 20.5143 24.0001 25.4693 24.0001V20.6129Z" fill="white" />
    <path d="M13.4268 11.9192C14.6962 11.7986 15.8773 11.3776 16.9001 10.7284C17.4606 6.78139 20.6839 3.69281 24.6932 3.3362C24.6248 2.17219 24.3935 1.05189 24.0175 0C18.0628 0.715631 13.4454 5.77599 13.4268 11.9192Z" fill="white" />
</svg>