<svg width="113" height="32" viewBox="0 0 113 32" fill="none" xmlns="http://www.w3.org/2000/svg">
<g clip-path="url(#clip0_2802_8004)">
<path d="M20.6028 23.7911C20.95 25.1095 21.5102 25.6193 22.5002 25.6193C23.5265 25.6193 24.0647 25.0002 24.0647 23.7911V1.34251H30.4937V23.7911C30.4937 26.9554 30.0848 28.3264 28.4868 29.9312C27.3351 31.0877 25.2109 31.9817 22.5286 31.9817C20.3616 31.9817 18.288 31.2616 16.9655 29.9315C15.8061 28.7652 15.1693 27.5674 14.174 23.7909L10.229 8.82537C9.88161 7.50698 9.32162 6.9974 8.33163 6.9974C7.30507 6.9974 6.7669 7.61623 6.7669 8.82537V31.2742H0.337891V8.82537C0.337891 5.66131 0.746973 4.29005 2.34497 2.68524C3.49622 1.52918 5.62072 0.634766 8.30321 0.634766C10.4702 0.634766 12.5438 1.35512 13.8663 2.68502C15.0256 3.85125 15.6625 5.04911 16.6578 8.82559L20.6028 23.7911Z" fill="white"/>
<path d="M105.646 31.2742L98.2209 7.95463C98.139 7.69718 98.0616 7.47867 97.9427 7.33291C97.7387 7.08366 97.4565 6.95272 97.0767 6.95272C96.6971 6.95272 96.4149 7.08366 96.2107 7.33291C96.092 7.47845 96.0145 7.69696 95.9327 7.95463L88.5082 31.2742H81.8627L89.9727 5.80043C90.3952 4.4734 90.9993 3.34676 91.7657 2.59611C93.081 1.30867 94.631 0.634766 97.0769 0.634766C99.5228 0.634766 101.073 1.30867 102.388 2.59588C103.154 3.34676 103.758 4.47318 104.181 5.8002L112.291 31.274L105.646 31.2742Z" fill="white"/>
<path d="M72.7864 31.2742C76.9984 31.2742 79.0528 30.3758 80.6759 28.7553C82.472 26.9627 83.3311 25.0013 83.3311 22.073C83.3311 19.4856 82.3876 17.089 80.9511 15.6549C79.0729 13.7796 76.74 13.1886 72.936 13.1886L67.6078 13.1884C65.5718 13.1884 64.7605 12.9414 64.1186 12.3081C63.6778 11.8738 63.4711 11.2277 63.4711 10.4662C63.4711 9.67909 63.6599 8.90168 64.1988 8.37065C64.677 7.89933 65.3289 7.68303 66.5814 7.68303H81.9805V1.34251H67.7576C63.5456 1.34251 61.4914 2.24113 59.868 3.86142C58.0722 5.65401 57.2129 7.61513 57.2129 10.5434C57.2129 13.1313 58.1564 15.5277 59.5929 16.9616C61.4713 18.8369 63.804 19.4281 67.608 19.4281L72.9364 19.4285C74.9724 19.4285 75.7837 19.6751 76.4256 20.3085C76.8664 20.7431 77.0731 21.389 77.0731 22.1505C77.0731 22.9376 76.8843 23.715 76.3457 24.246C75.8672 24.7174 75.2153 24.9337 73.9628 24.9337H58.081L51.9897 5.80043C51.5672 4.4734 50.9632 3.34676 50.1968 2.59611C48.8814 1.30867 47.3314 0.634766 44.8855 0.634766C42.4396 0.634766 40.8894 1.30867 39.5747 2.59588C38.8081 3.34676 38.2043 4.47318 37.7818 5.8002L29.6717 31.274H36.317L43.7418 7.9544C43.8237 7.69696 43.901 7.47845 44.02 7.33269C44.224 7.08344 44.5064 6.9525 44.886 6.9525C45.2655 6.9525 45.5477 7.08344 45.7519 7.33269C45.8709 7.47822 45.9482 7.69674 46.0299 7.9544L53.4547 31.274L72.7864 31.2742Z" fill="white"/>
</g>
<defs>
<clipPath id="clip0_2802_8004">
<rect width="112.327" height="32" fill="white" transform="translate(0.337891)"/>
</clipPath>
</defs>
</svg>
