<svg width="78" height="32" viewBox="0 0 78 32" fill="none" xmlns="http://www.w3.org/2000/svg">
<g clip-path="url(#clip0_2802_7993)">
<path d="M69.37 11.5844C69.37 12.9558 70.7733 13.674 72.5328 14.5668C72.5648 14.583 72.5973 14.5995 72.6301 14.6161C74.4029 15.5142 77.3435 17.0038 77.3222 20.4662C77.3222 23.8405 74.7161 25.9301 70.6175 25.9301C68.7909 25.9301 66.6752 25.1246 65.6952 24.4495V20.6839C66.7639 21.5107 68.3677 22.534 70.6621 22.534C72.3105 22.534 73.2905 21.9025 73.2905 20.7925C73.2905 19.486 72.3993 18.9638 70.0607 17.7452C67.6998 16.526 65.5388 15.0236 65.5388 11.8889C65.5388 9.21151 67.4324 6.7519 71.6645 6.7519C73.1565 6.7519 74.8272 7.1874 76.03 7.68783V11.2362C74.8719 10.5611 73.357 10.017 71.6645 10.017C70.2165 10.017 69.37 10.6048 69.37 11.5844Z" fill="white"/>
<path fill-rule="evenodd" clip-rule="evenodd" d="M36.1374 6.90415H41.216C45.7156 6.90415 48.3887 9.29883 48.3658 13.304C48.3658 17.266 45.4258 19.7262 40.6816 19.7262H39.9239V25.7123H36.1374V6.90415ZM41.0379 10.0388H39.9239V16.5473H41.0597C43.3765 16.5473 44.691 15.3505 44.691 13.239C44.691 11.3011 43.2654 10.0388 41.0379 10.0388Z" fill="white"/>
<path fill-rule="evenodd" clip-rule="evenodd" d="M62.3984 11.7148C62.3984 13.435 61.7752 14.7191 60.4831 15.5901C62.443 16.1778 63.6682 17.8538 63.6458 20.0089C63.6458 22.7517 61.5077 25.7123 56.8077 25.7123H50.6826V6.90415H56.5625C60.1715 6.90415 62.3984 8.75418 62.3984 11.7148ZM58.7235 12.3899C58.7235 10.9748 57.7659 10.0819 56.2733 10.0819V10.1043H54.4691V14.7191H56.0728C57.6766 14.7191 58.7235 13.805 58.7235 12.3899ZM54.4691 17.6573V22.5552H56.5184C58.79 22.5552 59.9263 21.7279 59.9263 20.0956C59.9263 18.5714 58.79 17.6573 56.8747 17.6573H54.4691Z" fill="white"/>
<path d="M15.9358 15.1327C15.452 15.1308 14.9885 14.9421 14.6462 14.6078C14.304 14.2735 14.1108 13.8205 14.1087 13.3476C14.1108 12.8747 14.304 12.4218 14.6462 12.0875C14.9885 11.7531 15.452 11.5644 15.9358 11.5625C16.4197 11.5646 16.8832 11.7534 17.2253 12.0879C17.5674 12.4223 17.7604 12.8753 17.7624 13.3482C17.7601 13.821 17.5668 14.2738 17.2246 14.608C16.8825 14.9422 16.4196 15.1308 15.9358 15.1327Z" fill="white"/>
<path fill-rule="evenodd" clip-rule="evenodd" d="M16.3136 31.9817C25.1788 31.9817 32.3509 24.9723 32.3509 16.3082C32.3509 7.64416 25.1788 0.634766 16.3136 0.634766C7.44845 0.634766 0.276367 7.64416 0.276367 16.3082C0.276367 24.9723 7.44845 31.9817 16.3136 31.9817ZM21.9933 15.6332L17.3162 6.90415H12.4821C8.09477 6.90415 4.35236 10.4089 4.46347 14.7191C4.53106 17.9192 6.64683 20.3139 9.5868 21.228V25.7123H16.8036V21.968H17.7171C18.897 21.968 19.8105 21.0976 19.8105 20.0307V16.8087L21.5924 16.4605C21.9933 16.3956 22.1938 15.9601 21.9933 15.6332ZM28.0072 16.4605L26.2259 16.8087V20.0307C26.2259 21.1189 25.3124 21.968 24.1319 21.968H23.2184V25.7123H20.2784V21.968H21.1914C22.3718 21.968 23.2854 21.0976 23.2854 20.0307V16.8087L25.0672 16.4605C25.4458 16.3737 25.6463 15.9601 25.4682 15.6332L20.7905 6.90415H23.7087L28.3858 15.6332C28.5863 15.9601 28.3852 16.395 28.0072 16.4605Z" fill="white"/>
</g>
<defs>
<clipPath id="clip0_2802_7993">
<rect width="77.0612" height="32" fill="white" transform="translate(0.276367)"/>
</clipPath>
</defs>
</svg>
