<svg width="191" height="32" viewBox="0 0 191 32" fill="none" xmlns="http://www.w3.org/2000/svg">
<g clip-path="url(#clip0_2802_8089)">
<path d="M75.0644 5.13222H55.8791V9.3794H62.9624V27.4846H67.9886V9.3794H75.0719V5.13222M93.8277 19.8955C93.4409 20.8714 92.8115 21.7323 91.9991 22.3964C91.1867 23.0604 90.2184 23.5058 89.1859 23.6901C88.8028 23.7587 88.4145 23.794 88.0254 23.7957C87.626 23.7957 87.2342 23.7579 86.8574 23.6901C85.8257 23.5059 84.8583 23.0606 84.0471 22.3964C83.2359 21.7322 82.608 20.8713 82.2231 19.8955C81.7743 18.7517 81.5442 17.5336 81.5449 16.3046C81.5452 15.0783 81.7752 13.8628 82.2231 12.7213C82.6076 11.7445 83.2352 10.8824 84.0463 10.2169C84.8575 9.55146 85.8252 9.10474 86.8574 8.91923C87.6295 8.77622 88.4213 8.77622 89.1934 8.91923C90.2248 9.10403 91.1919 9.54962 92.003 10.2137C92.8141 10.8778 93.4422 11.7384 93.8277 12.7138C94.7273 15.023 94.7273 17.5863 93.8277 19.8955ZM88.0254 4.46082C84.8867 4.46082 81.8766 5.70904 79.6572 7.9309C77.4378 10.1528 76.1909 13.1662 76.1909 16.3084C76.1909 19.4506 77.4378 22.4641 79.6572 24.6859C81.8766 26.9078 84.8867 28.156 88.0254 28.156C91.1641 28.156 94.1742 26.9078 96.3936 24.6859C98.613 22.4641 99.8598 19.4506 99.8598 16.3084C99.8598 13.1662 98.613 10.1528 96.3936 7.9309C94.1742 5.70904 91.1641 4.46082 88.0254 4.46082ZM99.9314 5.13976H105.854L111.378 14.7431L116.901 5.13222H122.817L113.887 19.2166V27.4846H108.868V19.2166L99.9314 5.13222M134.745 23.7957C135.137 23.7957 135.529 23.7579 135.906 23.6901C136.937 23.5059 137.905 23.0606 138.716 22.3964C139.527 21.7322 140.155 20.8713 140.54 19.8955C141.445 17.5899 141.445 15.0269 140.54 12.7213C140.155 11.7455 139.527 10.8846 138.716 10.2204C137.905 9.55623 136.937 9.11089 135.906 8.92677C135.133 8.78806 134.342 8.78806 133.57 8.92677C132.539 9.11207 131.574 9.55795 130.764 10.2221C129.954 10.8862 129.327 11.7465 128.943 12.7213C128.495 13.8628 128.265 15.0782 128.265 16.3046C128.265 17.572 128.506 18.7866 128.943 19.8955C129.327 20.8717 129.955 21.733 130.766 22.3973C131.578 23.0615 132.545 23.5066 133.577 23.6901C133.963 23.7596 134.354 23.7949 134.745 23.7957ZM122.915 16.3046C122.915 13.1635 124.161 10.1509 126.38 7.9298C128.598 5.70865 131.608 4.46082 134.745 4.46082C137.883 4.46082 140.892 5.70865 143.111 7.9298C145.33 10.1509 146.576 13.1635 146.576 16.3046C146.576 19.4458 145.33 22.4583 143.111 24.6795C140.892 26.9006 137.883 28.1485 134.745 28.1485C131.608 28.1485 128.598 26.9006 126.38 24.6795C124.161 22.4583 122.915 19.4458 122.915 16.3046ZM180.84 18.6432L177.554 9.8094L174.261 18.6357H180.84M182.294 22.5509H172.799L170.968 27.4695H165.377L174.42 5.11713H180.674L189.717 27.4695H184.14L182.294 22.5509ZM166.854 5.13222H147.669V9.3794H154.752V27.4846H159.778V9.3794H166.846V5.13222M35.3826 2.17504C31.8852 1.11358 28.2461 0.594582 24.5918 0.636096C20.9375 0.594582 17.2984 1.11358 13.801 2.17504C5.81339 4.74749 0.3125 10.0885 0.3125 16.2443C0.3125 24.9122 11.1636 31.9807 24.5918 31.9807C37.9899 31.9807 48.8711 24.9423 48.8711 16.2443C48.8711 10.0885 43.3853 4.74749 35.3826 2.17504ZM24.5918 25.229C22.5874 25.229 20.9522 21.3062 20.8617 16.3348C22.0523 16.4631 23.3032 16.4932 24.5918 16.4932C25.8728 16.4932 27.1312 16.4329 28.3294 16.3424C28.2314 21.2987 26.5962 25.229 24.5918 25.229ZM21.1104 12.4799C21.6379 8.98712 22.9943 6.54292 24.5918 6.54292C26.1592 6.54292 27.508 8.98712 28.0732 12.4724C25.757 12.6797 23.427 12.6822 21.1104 12.4799ZM30.2057 12.1933C29.3919 6.76169 27.1915 2.8389 24.5918 2.8389C21.9921 2.8389 19.7917 6.73151 18.9779 12.1933C14.0497 11.4087 10.5984 9.68115 10.5984 7.63677C10.5984 4.87573 16.8755 2.64276 24.5918 2.64276C32.3081 2.64276 38.5927 4.87573 38.5927 7.63677C38.5927 9.67361 35.1414 11.4389 30.2133 12.1933H30.2057ZM3.85417 15.6785C3.85417 13.008 4.89407 10.5261 6.67997 8.36098C6.64983 8.51186 6.64983 8.67782 6.64983 8.79852C6.64983 12.1631 11.6685 14.9845 18.6614 16.0557V16.8101C18.6614 23.0262 20.3945 28.3069 22.7757 30.1249C12.1733 29.4988 3.86171 23.2751 3.86171 15.6785H3.85417ZM26.4154 30.1627C28.7966 28.3371 30.5222 23.0564 30.5222 16.8403V16.0859C37.5151 15.0524 42.5337 12.1933 42.5337 8.83624C42.5337 8.67782 42.5337 8.5194 42.5036 8.39116C44.2836 10.417 45.2853 13.011 45.3294 15.7087C45.3294 23.2751 37.0178 29.4988 26.4154 30.1551V30.1627Z" fill="white"/>
</g>
<defs>
<clipPath id="clip0_2802_8089">
<rect width="190.041" height="32" fill="white" transform="translate(0.305664)"/>
</clipPath>
</defs>
</svg>
