<svg width="32" height="32" viewBox="0 0 32 32" fill="none" xmlns="http://www.w3.org/2000/svg">
<g clip-path="url(#clip0_2802_8091)">
<path d="M7.61796 25.3732C8.36208 25.3732 8.95221 24.7667 8.95221 24.1157V20.7584C8.95221 20.0186 8.36208 19.4244 7.61796 19.4244C6.87999 19.4244 6.28494 20.0186 6.28494 20.7584V24.1157C6.28494 24.7667 6.87999 25.3732 7.61796 25.3732Z" fill="white"/>
<path d="M25.7625 24.1154C25.7625 24.7663 25.1588 25.3728 24.4245 25.3728C23.6866 25.3728 23.0866 24.7663 23.0866 24.1154V20.7581C23.0866 20.0182 23.6866 19.4241 24.4245 19.4241C25.1588 19.4241 25.7625 20.0182 25.7625 20.7581V24.1154Z" fill="white"/>
<path fill-rule="evenodd" clip-rule="evenodd" d="M31.6936 31.655H0.34668V0.308105H31.6936V31.655ZM4.32729 20.7584C4.32729 18.9674 5.77612 17.4876 7.61796 17.4876C9.46719 17.4876 10.8803 18.9674 10.8803 20.7584V24.1157C10.8803 24.9705 10.5021 25.8042 9.96738 26.4169L10.8803 29.3913H8.95221L8.26476 27.3248C8.05778 27.3631 7.84095 27.3865 7.61796 27.3865C5.77612 27.3865 4.32729 25.8833 4.32729 24.1157V20.7584ZM13.5589 27.3857H20.155V25.3723H15.5585V17.4868H13.5589V27.3857ZM10.8813 11.1966C10.8813 13.0544 9.46821 14.4872 7.62021 14.4872C5.77591 14.4872 4.32831 13.0544 4.32831 11.1966V4.58458H6.28596V11.1966C6.28596 11.9476 6.88101 12.5529 7.62021 12.5529C8.3631 12.5529 8.95323 11.9476 8.95323 11.1966V4.58458H10.8813V11.1966ZM23.4242 4.58413H25.4312V14.4867H23.4242V4.58413ZM20.155 14.4862H18.1506L15.5585 8.81289V14.4862H13.5589V4.58356H15.5585L18.1506 10.2482V4.58356H20.155V14.4862ZM24.4245 17.4873C22.5778 17.4873 21.161 18.967 21.161 20.7581V24.1154C21.161 25.8829 22.5778 27.3862 24.4245 27.3862C26.2676 27.3862 27.6869 25.8829 27.6869 24.1154V20.7581C27.6869 18.967 26.2676 17.4873 24.4245 17.4873Z" fill="white"/>
</g>
<defs>
<clipPath id="clip0_2802_8091">
<rect width="31.3469" height="32" fill="white" transform="translate(0.34668)"/>
</clipPath>
</defs>
</svg>
