<svg width="40" height="41" viewBox="0 0 40 41" fill="none" xmlns="http://www.w3.org/2000/svg">
<path d="M31.4717 11.6423C32.1765 10.9375 32.1765 9.79786 31.4717 9.10055C30.7669 8.40325 29.6272 8.39575 28.9299 9.10055L20.0074 18.023L11.0774 9.09305C10.3726 8.38825 9.23292 8.38825 8.53561 9.09305C7.83831 9.79786 7.83081 10.9375 8.53561 11.6348L17.4581 20.5573L8.52811 29.4873C7.82331 30.1921 7.82331 31.3318 8.52811 32.0291C9.23292 32.7264 10.3726 32.7339 11.0699 32.0291L19.9924 23.1066L28.9224 32.0366C29.6272 32.7414 30.7669 32.7414 31.4642 32.0366C32.1615 31.3318 32.169 30.1921 31.4642 29.4948L22.5417 20.5723L31.4717 11.6423Z" fill="white"/>
</svg>
